<svg width="361" height="392" viewBox="0 0 361 392" fill="none" xmlns="http://www.w3.org/2000/svg">
<path d="M271 -75C345.796 -75 406.5 -14.296 406.5 60.5V128.25C406.5 165.648 436.852 196 474.25 196C511.648 196 542 226.352 542 263.75C542 301.148 511.648 331.5 474.25 331.5C436.852 331.5 406.5 361.852 406.5 399.25C406.5 436.648 376.148 467 338.75 467H67.75C30.352 467 0 436.648 0 399.25V263.75C0 226.352 30.352 196 67.75 196C105.148 196 135.5 165.648 135.5 128.25V60.5C136.042 -14.296 196.204 -75 271 -75Z" fill="#014E3D"/>
<path d="M398.886 355.368H97.2897C81.4345 355.368 68.5 342.511 68.5 326.595V139.988C68.5 124.142 81.3649 111.215 97.2897 111.215H398.955C414.81 111.215 427.745 124.072 427.745 139.988V326.665C427.675 342.511 414.81 355.368 398.886 355.368Z" fill="#001F2C" stroke="#001E2B" stroke-width="0.75" stroke-miterlimit="10"/>
<path d="M398.886 341.191H97.2897C81.4345 341.191 68.5 328.333 68.5 312.418V125.81C68.5 109.964 81.3649 97.0371 97.2897 97.0371H398.955C414.81 97.0371 427.745 109.895 427.745 125.81V312.418C427.675 328.264 414.81 341.191 398.886 341.191Z" fill="#00F14C" stroke="#001F2C" stroke-width="0.75" stroke-miterlimit="10"/>
<path d="M398.886 341.19H97.2897C81.4345 341.19 68.5 328.333 68.5 312.418V145.479H427.675V312.418C427.675 328.264 414.81 341.19 398.886 341.19Z" fill="white" stroke="#001E2B" stroke-width="0.75" stroke-miterlimit="10"/>
<path d="M68.5 145.479H427.675" stroke="#231F20" stroke-width="0.75" stroke-miterlimit="10"/>
<path d="M319.332 370.867H381.71" stroke="#001E2B" stroke-width="0.75" stroke-miterlimit="10" stroke-dasharray="2 2"/>
<path d="M142.281 370.867H307.3" stroke="#001E2B" stroke-width="0.75" stroke-miterlimit="10" stroke-dasharray="2 2"/>
<path d="M180.598 386.297H345.547" stroke="#001E2B" stroke-width="0.75" stroke-miterlimit="10" stroke-dasharray="2 2"/>
<path d="M169.751 53.6699L180.738 62.3574L191.725 71.1144L178.652 76.2574L165.578 81.4004L167.664 67.5004L169.751 53.6699Z" fill="white" stroke="#001E2B" stroke-width="0.75" stroke-miterlimit="10"/>
<path d="M175.522 68.2656L165.578 81.4011L191.725 71.1151L175.522 68.2656Z" fill="#001E2B"/>
<path d="M175.522 68.2649L169.75 53.6699" stroke="#001E2B" stroke-width="0.75" stroke-miterlimit="10"/>
<path d="M98.6103 129.216C102.451 129.216 105.564 126.105 105.564 122.266C105.564 118.428 102.451 115.316 98.6103 115.316C94.7697 115.316 91.6562 118.428 91.6562 122.266C91.6562 126.105 94.7697 129.216 98.6103 129.216Z" fill="white" stroke="#001E2B" stroke-width="0.75" stroke-miterlimit="10"/>
<path d="M117.872 129.216C121.713 129.216 124.826 126.105 124.826 122.266C124.826 118.428 121.713 115.316 117.872 115.316C114.031 115.316 110.918 118.428 110.918 122.266C110.918 126.105 114.031 129.216 117.872 129.216Z" fill="white" stroke="#001E2B" stroke-width="0.75" stroke-miterlimit="10"/>
<path d="M137.134 129.216C140.974 129.216 144.088 126.105 144.088 122.266C144.088 118.428 140.974 115.316 137.134 115.316C133.293 115.316 130.18 118.428 130.18 122.266C130.18 126.105 133.293 129.216 137.134 129.216Z" fill="white" stroke="#001E2B" stroke-width="0.75" stroke-miterlimit="10"/>
<path d="M368.356 82.2344H326.91" stroke="#001E2B" stroke-width="0.75" stroke-miterlimit="10"/>
<path d="M390.956 196.145H105.702L68.9844 297.406H427.673L390.956 196.145Z" fill="#00A564" stroke="#001E2B" stroke-width="0.75" stroke-miterlimit="10" stroke-linejoin="round"/>
<path d="M105.702 196.145V297.406H68.9844L105.702 196.145Z" fill="#00885A" stroke="#001E2B" stroke-width="0.75" stroke-miterlimit="10" stroke-linejoin="round"/>
<path d="M368.843 205.528L360.428 193.226C357.716 189.265 353.127 186.832 348.328 186.832H302.362C297.494 186.832 292.974 189.195 290.262 193.226L281.778 205.528C278.301 210.532 272.599 213.52 266.549 213.52H104.938V334.659H391.235V213.52H384.142C378.022 213.52 372.32 210.532 368.843 205.528Z" fill="#FFE212" stroke="#001E2B" stroke-width="0.75" stroke-miterlimit="10"/>
<path d="M97.3594 334.936V231.659H211.405C217.386 231.659 223.019 228.67 226.426 223.736L234.91 211.434C237.692 207.403 242.281 204.971 247.219 204.971H293.185C298.122 204.971 302.712 207.403 305.493 211.434L313.977 223.736C317.385 228.67 323.017 231.659 328.998 231.659H398.816V334.936H97.3594Z" fill="#FFC010"/>
<path d="M293.185 205.249C298.053 205.249 302.573 207.612 305.285 211.643L313.769 223.945C317.246 228.949 322.948 231.937 328.998 231.937H398.538V334.658H97.568V231.868H211.336C217.455 231.868 223.158 228.879 226.565 223.875L235.049 211.574C237.761 207.612 242.351 205.18 247.149 205.18H293.185M293.185 204.693H247.219C242.212 204.693 237.553 207.126 234.701 211.296L226.217 223.597C222.88 228.462 217.316 231.381 211.405 231.381H97.568H97.0117V231.937V334.658V335.214H97.568H398.538H399.094V334.658V231.868V231.312H398.538H328.998C323.087 231.312 317.524 228.393 314.186 223.528L305.702 211.296C302.851 207.195 298.192 204.693 293.185 204.693Z" fill="#001E2B"/>
<path d="M258.623 242.223L250.139 229.921C247.427 225.96 242.837 223.527 238.039 223.527H192.073C187.205 223.527 182.685 225.89 179.973 229.921L171.489 242.223C168.012 247.227 162.309 250.215 156.259 250.215H90.2656V334.588H405.909V250.285H273.921C267.802 250.285 262.1 247.296 258.623 242.223Z" fill="#FFE212" stroke="#001E2B" stroke-width="0.75" stroke-miterlimit="10"/>
<path d="M82.8906 321.73V268.145H101.388C107.369 268.145 113.002 265.157 116.409 260.222L124.893 247.921C127.675 243.89 132.264 241.457 137.202 241.457H183.168C188.105 241.457 192.695 243.89 195.476 247.921L203.96 260.222C207.368 265.157 213 268.145 218.981 268.145H413.694V321.73H82.8906Z" fill="#FFC010"/>
<path d="M183.168 241.736C188.036 241.736 192.556 244.099 195.268 248.13L203.752 260.431C207.229 265.435 212.932 268.424 218.982 268.424H413.486V321.522H83.1696V268.424H101.389C107.509 268.424 113.211 265.435 116.618 260.431L125.102 248.13C127.814 244.168 132.404 241.736 137.202 241.736H183.168M183.168 241.18H137.202C132.195 241.18 127.536 243.612 124.685 247.782L116.201 260.084C112.863 264.949 107.3 267.868 101.389 267.868H83.1696H82.6133V268.424V321.522V322.078H83.1696H413.555H414.112V321.522V268.424V267.868H413.555H219.051C213.14 267.868 207.577 264.949 204.239 260.084L195.755 247.782C192.904 243.612 188.175 241.18 183.168 241.18Z" fill="#001E2B"/>
<path d="M68.5 297.822V312.417C68.5 328.263 81.3649 341.19 97.2897 341.19H398.955C414.81 341.19 427.745 328.333 427.745 312.417V297.822H68.5Z" fill="#00222F" stroke="#001E2B" stroke-width="0.75" stroke-miterlimit="10" stroke-linejoin="round"/>
<path d="M370.442 118.443H208.344V48.5263C208.344 41.4373 214.046 35.7383 221.139 35.7383H357.647C364.74 35.7383 370.442 41.4373 370.442 48.5263V118.443V118.443Z" fill="#FFE212" stroke="#001E2B" stroke-width="0.75" stroke-miterlimit="10"/>
<path d="M370.442 118.652H208.344V128.174H370.442V118.652Z" fill="#001E2B" stroke="#001E2B" stroke-width="0.75" stroke-miterlimit="10"/>
<path d="M224.893 70.0721C226.928 70.0721 228.578 68.4229 228.578 66.3886C228.578 64.3542 226.928 62.7051 224.893 62.7051C222.857 62.7051 221.207 64.3542 221.207 66.3886C221.207 68.4229 222.857 70.0721 224.893 70.0721Z" fill="#001E2B" stroke="#001E2B" stroke-width="0.75" stroke-miterlimit="10"/>
<path d="M370.443 69.4466V56.3111C370.443 52.2801 367.175 49.0136 363.141 49.0136C359.108 49.0136 355.84 52.2801 355.84 56.3111V86.4046C355.84 90.4356 352.571 93.7021 348.538 93.7021C344.505 93.7021 341.236 90.4356 341.236 86.4046V51.7936C341.236 47.7626 337.968 44.4961 333.934 44.4961C329.901 44.4961 326.633 47.7626 326.633 51.7936V97.4551C326.633 101.486 323.364 104.753 319.331 104.753C315.298 104.753 312.238 101.486 312.238 97.4551V67.9176C312.238 63.8866 308.969 60.6201 304.936 60.6201C300.903 60.6201 297.634 63.8866 297.634 67.9176V83.0686C297.634 87.0996 294.366 90.3661 290.333 90.3661C286.299 90.3661 283.031 87.0996 283.031 83.0686V57.9096C283.031 53.8786 279.763 50.6121 275.729 50.6121C271.696 50.6121 268.428 53.8786 268.428 57.9096V83.0686C268.428 87.0996 265.159 90.3661 261.126 90.3661C257.092 90.3661 253.824 87.0996 253.824 83.0686V52.3496C253.824 48.3186 250.556 45.0521 246.522 45.0521C242.489 45.0521 239.221 48.3186 239.221 52.3496V101.695C239.221 105.726 235.952 108.992 231.919 108.992C227.886 108.992 224.617 105.726 224.617 101.695V67.2226" stroke="#001E2B" stroke-width="0.75" stroke-miterlimit="10"/>
<path d="M224.895 68.4727C226.047 68.4727 226.981 67.5392 226.981 66.3877C226.981 65.2362 226.047 64.3027 224.895 64.3027C223.743 64.3027 222.809 65.2362 222.809 66.3877C222.809 67.5392 223.743 68.4727 224.895 68.4727Z" fill="white" stroke="white" stroke-width="0.75" stroke-miterlimit="10"/>
<path d="M453.263 115.663L471.83 162.854L423.917 274.679L355.211 215.952L400.482 110.242L453.263 115.663Z" fill="white" stroke="#231F20" stroke-width="0.75" stroke-miterlimit="10"/>
<path d="M360.633 214.631L403.331 115.107L455.416 120.389L469.602 156.46L422.176 267.173L360.633 214.631Z" fill="#FFC010"/>
<path d="M403.47 115.386L455.208 120.668L469.325 156.53L422.107 266.757L360.981 214.563L403.47 115.386ZM403.123 114.83L402.984 115.178L360.495 214.354L360.355 214.702L360.634 214.98L421.759 267.174L422.316 267.661L422.594 267.035L469.812 156.739L469.881 156.53L469.812 156.322L455.695 120.46L455.556 120.182H455.208L403.47 114.9L403.123 114.83Z" fill="#001E2B"/>
<path d="M162.032 103.779L159.945 117.609L186.092 107.323L175.105 98.6356L173.088 97.0371H163.005L162.032 103.779Z" fill="#001E2B"/>
<path d="M223.224 202.467H97.0086C87.2034 202.467 79.1367 194.405 79.1367 184.606V179.463H241.096V184.606C241.096 194.475 233.099 202.467 223.224 202.467Z" fill="#001E2B" stroke="#001E2B" stroke-width="0.75" stroke-miterlimit="10"/>
<path d="M225.658 194.962H94.6442C86.1603 194.962 79.1367 188.012 79.1367 179.463C79.1367 170.984 86.0907 163.965 94.6442 163.965H225.658C234.142 163.965 241.165 170.915 241.165 179.463C241.096 188.012 234.142 194.962 225.658 194.962Z" fill="#B1FF05" stroke="#231F20" stroke-width="0.75" stroke-miterlimit="10"/>
<path d="M199.789 179.463H221.625" stroke="#001E2B" stroke-width="0.75" stroke-miterlimit="10" stroke-dasharray="2 2"/>
<path d="M153.684 179.463H192.626" stroke="#001E2B" stroke-width="0.75" stroke-miterlimit="10" stroke-dasharray="2 2"/>
<path d="M125.449 179.463H147.911" stroke="#001E2B" stroke-width="0.75" stroke-miterlimit="10" stroke-dasharray="2 2"/>
<path d="M98.6094 179.463H118.011" stroke="#001E2B" stroke-width="0.75" stroke-miterlimit="10" stroke-dasharray="2 2"/>
<path d="M157.65 245.698H31.4343C21.6292 245.698 13.5625 237.636 13.5625 227.836V222.693H175.522V227.836C175.522 237.705 167.455 245.698 157.65 245.698Z" fill="#001E2B" stroke="#001E2B" stroke-width="0.75" stroke-miterlimit="10"/>
<path d="M160.013 238.192H28.9997C20.5158 238.192 13.4922 231.242 13.4922 222.694C13.4922 214.215 20.4462 207.195 28.9997 207.195H160.013C168.497 207.195 175.521 214.145 175.521 222.694C175.521 231.242 168.567 238.192 160.013 238.192Z" fill="#B1FF05" stroke="#231F20" stroke-width="0.75" stroke-miterlimit="10"/>
<path d="M134.215 222.764H156.05" stroke="#001E2B" stroke-width="0.75" stroke-miterlimit="10" stroke-dasharray="2 2"/>
<path d="M88.1094 222.764H127.052" stroke="#001E2B" stroke-width="0.75" stroke-miterlimit="10" stroke-dasharray="2 2"/>
<path d="M59.8047 222.764H82.3357" stroke="#001E2B" stroke-width="0.75" stroke-miterlimit="10" stroke-dasharray="2 2"/>
<path d="M33.0312 222.764H52.3634" stroke="#001E2B" stroke-width="0.75" stroke-miterlimit="10" stroke-dasharray="2 2"/>
<path d="M34.9805 54.4335L16.3438 101.624L64.257 213.45L133.032 154.792L87.7616 49.082L34.9805 54.4335Z" fill="white" stroke="#231F20" stroke-width="0.75" stroke-miterlimit="10"/>
<path d="M32.9643 59.5066L18.8477 95.2991L66.135 205.596L127.191 153.401L84.7023 54.2246L32.9643 59.5066Z" fill="#FFE212" stroke="#001E2B" stroke-width="0.75" stroke-miterlimit="10"/>
<path d="M51.1854 132.759C49.7946 132.759 48.4733 131.925 47.917 130.674C47.5693 129.77 47.5693 128.867 47.917 127.963C48.2647 127.06 49.0297 126.365 49.9337 126.017L94.4394 108.434C94.7176 108.364 94.9958 108.295 95.2044 108.295C96.0389 108.295 96.8038 108.781 97.1515 109.546L97.221 109.615C97.6383 110.658 97.221 111.909 96.1084 112.395L52.6458 132.481C52.159 132.62 51.6722 132.759 51.1854 132.759Z" fill="#FFC010"/>
<path d="M95.2027 108.504C95.8981 108.504 96.5935 108.921 96.8716 109.616L96.9412 109.686C97.3584 110.589 96.9412 111.701 95.9676 112.118L52.505 132.204C52.0182 132.412 51.5314 132.482 51.1142 132.482C49.8624 132.482 48.6107 131.787 48.1239 130.536C47.4285 128.868 48.263 126.922 50.0015 126.227L94.5073 108.643C94.7159 108.574 94.994 108.504 95.2027 108.504ZM95.2027 108.018C94.9245 108.018 94.5768 108.087 94.2986 108.157L49.7929 125.74C48.8193 126.157 48.0544 126.852 47.6371 127.825C47.2199 128.798 47.2199 129.841 47.6371 130.744C48.263 132.134 49.5843 133.038 51.1142 133.038C51.6705 133.038 52.2268 132.899 52.7136 132.69L96.1762 112.605C97.3584 112.049 97.9147 110.728 97.3584 109.547L97.2889 109.477C97.0107 108.574 96.1762 108.018 95.2027 108.018Z" fill="#001E2B"/>
<path d="M41.7956 110.936C40.4048 110.936 39.1531 110.102 38.5967 108.851C38.1795 107.947 38.249 106.835 38.6663 105.932C39.1531 104.959 39.9875 104.333 41.0306 104.055L87.9703 92.6574C88.1094 92.5879 88.318 92.5879 88.5266 92.5879C89.3611 92.5879 90.1956 93.0744 90.4737 93.9084C90.6824 94.4644 90.6824 95.0899 90.4737 95.6459C90.1956 96.2019 89.7088 96.6189 89.1525 96.8274L42.9082 110.866C42.491 110.866 42.1433 110.936 41.7956 110.936Z" fill="#FFC010"/>
<path d="M88.4558 92.797C89.2208 92.797 89.9162 93.214 90.1943 93.909C90.6116 94.9515 90.0553 96.133 88.9426 96.4805L42.7679 110.52C42.4202 110.589 42.142 110.659 41.7943 110.659C40.5426 110.659 39.3604 109.894 38.8041 108.713C38.0392 106.906 39.0823 104.751 41.0989 104.265L88.0386 92.8665C88.1777 92.8665 88.3167 92.797 88.4558 92.797ZM88.4558 92.3105C88.2472 92.3105 88.0386 92.3105 87.8995 92.38L40.9598 103.778C39.8472 104.056 38.9432 104.751 38.4564 105.794C37.9696 106.767 37.9001 107.948 38.3869 108.921C38.9432 110.311 40.334 111.145 41.8639 111.145C42.2116 111.145 42.6288 111.076 42.9765 111.006L89.2208 96.967C89.9162 96.7585 90.4725 96.272 90.7507 95.6465C91.0288 95.021 91.0288 94.326 90.7507 93.7005C90.3334 92.8665 89.4294 92.3105 88.4558 92.3105Z" fill="#001E2B"/>
<path d="M32.4072 89.1821C31.0164 89.1821 29.7647 88.3481 29.2779 87.0971C28.8606 86.1241 28.9302 85.0121 29.417 84.1086C29.9733 83.1356 30.8773 82.5101 31.9899 82.3711L80.8072 75.3516C80.8767 75.3516 81.0158 75.3516 81.0854 75.3516C81.9198 75.3516 82.6848 75.8381 83.0325 76.6026C83.3106 77.1586 83.2411 77.8536 82.9629 78.4096C82.6848 78.9656 82.1285 79.3826 81.5026 79.5216L33.1721 89.1126C32.894 89.1126 32.6158 89.1821 32.4072 89.1821Z" fill="#FFC010"/>
<path d="M81.0843 75.5607C81.8493 75.5607 82.4751 75.9777 82.7533 76.6727C83.2401 77.7847 82.5447 78.9662 81.3625 79.2442L33.032 88.8352C32.8234 88.9047 32.6148 88.9047 32.4062 88.9047C31.1544 88.9047 29.9723 88.1402 29.4855 87.0282C28.651 85.0822 29.9027 82.9277 32.0585 82.6497L80.8757 75.6302C80.9453 75.5607 81.0148 75.5607 81.0843 75.5607ZM81.0843 75.0742C80.9452 75.0742 80.8757 75.0742 80.7366 75.0742L31.9889 82.0937C30.8067 82.2327 29.8332 82.9277 29.2073 83.9702C28.651 84.9432 28.5815 86.1247 28.9987 87.2367C29.555 88.5572 30.9458 89.4607 32.4062 89.4607C32.6843 89.4607 32.8929 89.4607 33.1711 89.3912L81.5016 79.8002C82.197 79.6612 82.8228 79.1747 83.1705 78.5492C83.5182 77.9237 83.5182 77.1592 83.2401 76.5337C82.8924 75.6302 82.0579 75.0742 81.0843 75.0742Z" fill="#001E2B"/>
<path d="M69.7468 176.266C68.356 176.266 67.1042 175.432 66.5479 174.181C65.9221 172.722 66.4088 170.984 67.7301 170.011L108.063 141.655C108.411 141.377 108.828 141.238 109.315 141.238C110.15 141.238 110.915 141.725 111.262 142.489C111.61 143.393 111.401 144.366 110.636 144.991L71.9025 175.432C71.2767 175.988 70.5117 176.266 69.7468 176.266Z" fill="#FFC010"/>
<path d="M109.386 141.516C110.081 141.516 110.777 141.933 111.125 142.628C111.472 143.392 111.194 144.296 110.568 144.782L71.8343 175.223C71.2085 175.71 70.5131 175.918 69.8177 175.918C68.5659 175.918 67.3837 175.223 66.897 174.042C66.3406 172.652 66.7579 171.053 68.0096 170.219L108.343 141.863C108.621 141.655 108.969 141.516 109.386 141.516ZM109.386 141.029C108.899 141.029 108.412 141.168 107.995 141.446L67.6619 169.802C66.2016 170.775 65.6452 172.721 66.3406 174.25C66.897 175.571 68.2878 176.474 69.7481 176.474C70.5826 176.474 71.4171 176.196 72.1125 175.64L110.846 145.199C111.681 144.504 112.029 143.392 111.542 142.419C111.194 141.585 110.29 141.029 109.386 141.029Z" fill="#001E2B"/>
<path d="M60.4996 154.582C59.1088 154.582 57.857 153.748 57.3007 152.497C56.6053 150.898 57.2312 148.952 58.8306 148.049L100.902 124.28C101.25 124.071 101.598 124.002 101.946 124.002C102.78 124.002 103.545 124.488 103.893 125.253V125.322C104.31 126.295 103.962 127.338 103.058 127.894L62.3772 153.956C61.8208 154.373 61.1254 154.582 60.4996 154.582Z" fill="#FFC010"/>
<path d="M101.945 124.211C102.64 124.211 103.335 124.628 103.614 125.323V125.393C103.961 126.227 103.683 127.2 102.918 127.686L62.2371 153.749C61.6808 154.096 61.0549 154.305 60.4291 154.305C59.1773 154.305 57.9952 153.61 57.4388 152.359C56.813 150.83 57.3693 149.092 58.8296 148.258L100.901 124.489C101.319 124.281 101.597 124.211 101.945 124.211ZM101.945 123.725C101.527 123.725 101.11 123.864 100.762 124.072L58.6906 147.841C57.0216 148.814 56.3262 150.83 57.0216 152.567C57.5779 153.957 58.9687 154.791 60.4986 154.791C61.2636 154.791 61.959 154.583 62.5848 154.166L103.266 128.103C104.239 127.478 104.657 126.227 104.17 125.184V125.115C103.753 124.281 102.918 123.725 101.945 123.725Z" fill="#001E2B"/>
<path d="M16.3438 101.624L48.9581 90.9906L34.9805 54.4336L16.3438 101.624Z" fill="white" stroke="#231F20" stroke-width="0.75" stroke-miterlimit="10" stroke-linejoin="round"/>
<path d="M16.3438 101.625L48.5409 96.2039L46.6633 91.7559L16.3438 101.625Z" fill="#001E2B"/>
<path d="M358.133 289.481C380.177 272.871 411.471 277.319 428.091 299.281C444.711 321.243 440.26 352.587 418.286 369.198C396.241 385.808 364.948 381.36 348.328 359.398C331.708 337.436 336.089 306.092 358.133 289.481ZM352.5 356.201C367.382 375.939 395.407 379.831 415.087 365.028C434.836 350.155 438.73 322.146 423.918 302.478C409.037 282.74 381.012 278.848 361.332 293.651C341.583 308.524 337.619 336.533 352.5 356.201Z" fill="#001F2C"/>
<path d="M358.133 289.481C380.177 272.871 411.471 277.319 428.091 299.281C444.711 321.243 440.26 352.587 418.286 369.198C396.241 385.808 364.948 381.36 348.328 359.398C331.708 337.436 336.089 306.092 358.133 289.481ZM352.5 356.201C367.382 375.939 395.407 379.831 415.087 365.028C434.836 350.155 438.73 322.146 423.918 302.478C409.037 282.74 381.012 278.848 361.332 293.651C341.583 308.524 337.619 336.533 352.5 356.201Z" stroke="#001F2C" stroke-width="0.75" stroke-miterlimit="10"/>
<path d="M357.508 284.686C379.552 268.076 410.846 272.524 427.466 294.486C444.086 316.448 439.635 347.792 417.661 364.403C395.616 381.013 364.323 376.565 347.703 354.603C331.083 332.641 335.464 301.227 357.508 284.686ZM351.806 351.406C366.688 371.144 394.712 375.036 414.392 360.233C434.142 345.36 438.036 317.351 423.224 297.683C408.342 277.945 380.317 274.053 360.638 288.856C340.888 303.66 336.994 331.668 351.806 351.406Z" fill="#00F14C" stroke="#001F2C" stroke-width="0.75" stroke-miterlimit="10"/>
<path d="M357.508 284.686C379.552 268.076 410.846 272.524 427.466 294.486C444.086 316.448 439.635 347.792 417.661 364.403C395.616 381.013 364.323 376.565 347.703 354.603C331.083 332.641 335.464 301.227 357.508 284.686ZM351.806 351.406C366.688 371.144 394.712 375.036 414.392 360.233C434.142 345.36 438.036 317.351 423.224 297.683C408.342 277.945 380.317 274.053 360.638 288.856C340.888 303.66 336.994 331.668 351.806 351.406Z" fill="#00F14C" stroke="#001F2C" stroke-width="0.75" stroke-miterlimit="10"/>
<path d="M154.38 376.704C153.893 358.356 143.949 336.741 126.007 318.81C108.066 300.879 86.4391 290.941 68.0805 290.454L58.9707 281.35L39.7776 300.532C21.0017 319.297 29.277 357.869 58.1362 386.712C86.9954 415.554 125.59 423.755 144.366 405.06L163.559 385.878L154.38 376.704Z" fill="#FFC010" stroke="#001E2B" stroke-width="0.75" stroke-miterlimit="10"/>
<path d="M125.94 318.811C123.367 316.239 120.725 313.876 118.082 311.652L50.9062 378.789C53.1315 381.5 55.4959 384.071 58.0689 386.643C86.9281 415.485 125.523 423.686 144.299 404.991L163.492 385.809L154.382 376.704C153.826 358.356 143.882 336.742 125.94 318.811Z" fill="#001E2B" stroke="#001E2B" stroke-width="0.75" stroke-miterlimit="10"/>
<path d="M163.484 385.841C182.222 367.114 174.01 328.544 145.143 299.693C116.275 270.842 77.6825 262.635 58.9442 281.363C40.206 300.09 48.4176 338.66 77.2853 367.511C106.153 396.362 144.745 404.569 163.484 385.841Z" fill="#FFC010" stroke="#001E2B" stroke-width="0.75" stroke-miterlimit="10"/>
<path d="M145.132 299.698C143.394 297.961 141.655 296.293 139.847 294.764C164.673 322.911 170.862 358.009 153.199 375.662C135.605 393.245 100.418 387.06 72.2539 362.318C73.8533 364.125 75.5223 365.862 77.1913 367.6C106.05 396.442 144.645 404.643 163.421 385.948C182.197 367.113 173.991 328.541 145.132 299.698Z" fill="#001E2B" stroke="#001E2B" stroke-width="0.75" stroke-miterlimit="10"/>
<path d="M153.2 375.592C139.222 389.562 109.111 382.055 85.885 358.842C62.6585 335.629 55.1482 305.536 69.1258 291.566C83.1034 277.597 117.665 263.419 149.514 295.25C181.364 327.081 167.177 361.623 153.2 375.592Z" fill="#FFE212" stroke="#001E2B" stroke-width="0.75" stroke-miterlimit="10"/>
<path d="M153.257 375.619C167.215 361.669 159.708 331.548 136.489 308.342C113.27 285.136 83.1314 277.633 69.1728 291.584C55.2141 305.535 62.7213 335.656 85.9404 358.861C109.16 382.067 139.298 389.57 153.257 375.619Z" stroke="#001E2B" stroke-width="0.75" stroke-miterlimit="10" stroke-dasharray="2 2"/>
<path d="M115.716 329.097L139.916 365.863L103.129 341.677L78.8594 304.842L115.716 329.097Z" fill="#001E2B" stroke="#001E2B" stroke-width="0.75" stroke-miterlimit="10"/>
<path d="M153.545 341.398L144.574 339.66" stroke="#001E2B" stroke-width="0.75" stroke-miterlimit="10"/>
<path d="M78.5129 326.872L69.4727 325.135" stroke="#001E2B" stroke-width="0.75" stroke-miterlimit="10"/>
<path d="M119.68 375.245L117.941 366.279" stroke="#001E2B" stroke-width="0.75" stroke-miterlimit="10"/>
<path d="M105.149 300.254L103.41 291.219" stroke="#001E2B" stroke-width="0.75" stroke-miterlimit="10"/>
<path d="M120.235 324.579L144.435 361.414L107.579 337.158L83.3789 300.393L120.235 324.579Z" fill="#00ED64" stroke="#001E2B" stroke-width="0.75" stroke-miterlimit="10" stroke-linejoin="round"/>
<path d="M118.206 335.166C119.699 333.674 118.995 330.549 116.632 328.188C114.27 325.827 111.143 325.123 109.65 326.615C108.156 328.108 108.861 331.233 111.223 333.594C113.586 335.955 116.712 336.659 118.206 335.166Z" fill="#001E2B" stroke="#001E2B" stroke-width="0.75" stroke-miterlimit="10"/>
<path d="M154.868 301.088C158.415 323.675 151.252 348 133.45 365.723C128.095 371.074 122.184 375.453 115.926 378.858C130.807 384.557 144.924 383.862 153.199 375.522C166.342 362.526 179.625 331.181 154.868 301.088Z" stroke="#001E2B" stroke-width="0.75" stroke-miterlimit="10" stroke-dasharray="2 2"/>
<path d="M101.655 353.729L102.43 352.954L97.6115 344.517L96.7056 345.422L100.488 351.984L93.2875 348.614L96.6682 355.801L90.1029 352.021L89.197 352.926L97.6395 357.742L98.4146 356.968L95.5382 350.845L101.655 353.729Z" fill="black"/>
<path d="M134.85 320.554L138.717 316.69L137.895 315.869L134.897 318.865L132.74 316.709L135.177 314.273L134.355 313.452L131.918 315.888L129.91 313.881L132.908 310.885L132.086 310.063L128.219 313.928L134.85 320.554Z" fill="black"/>
</svg>
