<svg width="48" height="48" viewBox="0 0 48 48" fill="none" xmlns="http://www.w3.org/2000/svg">
<path d="M23.9994 8.66699C18.5467 8.66699 13.9651 12.9684 12.666 18.0003C12.8844 17.9732 13.7736 18.0003 13.9993 18.0003C16.666 18.3337 18.3327 20.3337 18.666 22.9923C18.666 25.2766 18.361 26.9144 16.3327 27.667L15.123 28.4578C17.4545 28.8484 19.5343 29.9896 21.0936 31.6327C22.0288 31.8727 22.9891 32.0003 23.9994 32.0003C25.0049 32.0003 26.0321 31.8772 26.9684 31.6327C28.9172 29.5791 31.6158 28.667 34.666 28.667L32.666 28.3337C30.6377 27.5811 29.3327 25.2766 29.3327 22.9923C29.9993 20.3337 30.9993 18.667 33.9993 18.0003C34.2251 18.0003 35.1143 17.9732 35.3327 18.0003C34.0336 12.9684 29.4521 8.66699 23.9994 8.66699Z" fill="#00ED64"/>
<path d="M12.666 18.0003C13.9651 12.9684 18.5467 8.66699 23.9994 8.66699M23.9994 8.66699C29.4521 8.66699 34.0336 12.9684 35.3327 18.0003M23.9994 8.66699C21.8451 8.66699 20.0987 13.8903 20.0987 20.3337C20.0987 26.777 21.8451 32.0003 23.9994 32.0003M23.9994 8.66699C26.1537 8.66699 27.9001 13.8903 27.9001 20.3337C27.9001 26.777 26.1537 32.0003 23.9994 32.0003M23.9994 32.0003C22.9891 32.0003 21.6011 31.907 20.666 31.667M23.9994 32.0003C25.0049 32.0003 26.3964 31.9114 27.3327 31.667M17.666 20.3337H30.3327" stroke="white" stroke-miterlimit="10"/>
<path d="M2.66602 39.3338H2.16602C2.16602 39.61 2.38987 39.8338 2.66602 39.8338V39.3338ZM12.666 18.0418L12.6041 17.5456L12.666 18.0418ZM15.1928 28.3338L15.3672 28.8024L15.1928 28.3338ZM45.3327 39.3338V39.8338C45.6088 39.8338 45.8327 39.61 45.8327 39.3338H45.3327ZM13.3327 28.1672C10.6633 28.1672 8.49935 26.0032 8.49935 23.3338H7.49935C7.49935 26.5555 10.111 29.1672 13.3327 29.1672V28.1672ZM13.3327 18.5005C16.0021 18.5005 18.166 20.6644 18.166 23.3338H19.166C19.166 20.1122 16.5543 17.5005 13.3327 17.5005V18.5005ZM23.9993 38.8338H2.66602V39.8338H23.9993V38.8338ZM3.16602 39.3338C3.16602 33.7433 7.74216 29.1672 13.3327 29.1672V28.1672C7.18987 28.1672 2.16602 33.191 2.16602 39.3338H3.16602ZM13.3327 29.1672C18.9259 29.1672 23.4993 33.6571 23.4993 39.3338H24.4993C24.4993 33.0994 19.4728 28.1672 13.3327 28.1672V29.1672ZM8.49935 23.3338C8.49935 20.8694 10.3442 18.8352 12.7279 18.5379L12.6041 17.5456C9.72612 17.9045 7.49935 20.3587 7.49935 23.3338H8.49935ZM12.7279 18.5379C12.9258 18.5132 13.1276 18.5005 13.3327 18.5005V17.5005C13.0862 17.5005 12.843 17.5158 12.6041 17.5456L12.7279 18.5379ZM18.166 23.3338C18.166 25.4095 16.8573 27.1808 15.0184 27.8652L15.3672 28.8024C17.5849 27.977 19.166 25.8407 19.166 23.3338H18.166ZM15.0184 27.8652C14.4942 28.0603 13.9265 28.1672 13.3327 28.1672V29.1672C14.0474 29.1672 14.7331 29.0384 15.3672 28.8024L15.0184 27.8652ZM39.4994 23.3338C39.4994 26.0032 37.3354 28.1672 34.666 28.1672V29.1672C37.8877 29.1672 40.4994 26.5555 40.4994 23.3338H39.4994ZM34.666 28.1672C31.9966 28.1672 29.8327 26.0032 29.8327 23.3338H28.8327C28.8327 26.5555 31.4444 29.1672 34.666 29.1672V28.1672ZM29.8327 23.3338C29.8327 20.6644 31.9966 18.5005 34.666 18.5005V17.5005C31.4444 17.5005 28.8327 20.1122 28.8327 23.3338H29.8327ZM34.666 18.5005C37.3354 18.5005 39.4994 20.6644 39.4994 23.3338H40.4994C40.4994 20.1122 37.8877 17.5005 34.666 17.5005V18.5005ZM45.3327 38.8338H23.9993V39.8338H45.3327V38.8338ZM24.4993 39.3338C24.4993 33.7433 29.0755 29.1672 34.666 29.1672V28.1672C28.5232 28.1672 23.4993 33.191 23.4993 39.3338H24.4993ZM34.666 29.1672C40.2593 29.1672 44.8327 33.6571 44.8327 39.3338H45.8327C45.8327 33.0994 40.8061 28.1672 34.666 28.1672V29.1672Z" fill="white"/>
</svg>
