<svg width="48" height="48" viewBox="0 0 48 48" fill="none" xmlns="http://www.w3.org/2000/svg">
<path d="M42 12.016L42.5 12.016C42.5 11.8835 42.4474 11.7565 42.3539 11.6627L42 12.016ZM32.6667 2.6665L33.0205 2.31326C32.9267 2.2193 32.7994 2.1665 32.6667 2.1665V2.6665ZM41.9333 39.9975L42.2872 39.6443C42.1443 39.5011 41.9291 39.4582 41.7422 39.5355C41.5552 39.6129 41.4333 39.7952 41.4333 39.9975H41.9333ZM42.3539 11.6627L33.0205 2.31326L32.3128 3.01975L41.6461 12.3692L42.3539 11.6627ZM32.6667 2.1665H11.3333V3.1665H32.6667V2.1665ZM11.3333 2.1665C10.323 2.1665 9.5 2.99221 9.5 4.00214H10.5C10.5 3.54287 10.877 3.1665 11.3333 3.1665V2.1665ZM9.5 4.00214V39.9975H10.5V4.00214H9.5ZM9.5 39.9975C9.5 41.0075 10.323 41.8332 11.3333 41.8332V40.8332C10.877 40.8332 10.5 40.4568 10.5 39.9975H9.5ZM11.3333 41.8332H40.6V40.8332H11.3333V41.8332ZM40.6 41.8332C41.6103 41.8332 42.4333 41.0075 42.4333 39.9975H41.4333C41.4333 40.4568 41.0564 40.8332 40.6 40.8332V41.8332ZM41.5795 40.3508C41.702 40.4408 42.032 40.4879 42.2047 40.4178C42.2831 40.3553 42.3719 40.2386 42.3926 40.1965C42.4183 40.1374 42.4265 40.0854 42.4272 40.0815C42.4321 40.0536 42.4341 40.029 42.4348 40.0206C42.4367 39.997 42.438 39.9691 42.439 39.9423C42.4412 39.8859 42.4431 39.8049 42.445 39.7034C42.4487 39.4991 42.4521 39.1992 42.4553 38.8186C42.4617 38.0568 42.4672 36.9656 42.4719 35.6554C42.4812 33.0346 42.4875 29.5343 42.4917 26.0324C42.4958 22.5303 42.4979 19.0262 42.499 16.3977C42.4995 15.0834 42.4997 13.988 42.4999 13.2211C42.4999 12.8377 42.5 12.5364 42.5 12.331C42.5 12.2283 42.5 12.1495 42.5 12.0964C42.5 12.0699 42.5 12.0498 42.5 12.0363C42.5 12.0296 42.5 12.0245 42.5 12.0211C42.5 12.0194 42.5 12.0181 42.5 12.0172C42.5 12.0168 42.5 12.0165 42.5 12.0163C42.5 12.0161 42.5 12.016 42 12.016C41.5 12.016 41.5 12.0161 41.5 12.0163C41.5 12.0165 41.5 12.0168 41.5 12.0172C41.5 12.0181 41.5 12.0194 41.5 12.0211C41.5 12.0245 41.5 12.0295 41.5 12.0363C41.5 12.0498 41.5 12.0699 41.5 12.0964C41.5 12.1495 41.5 12.2282 41.5 12.3309C41.5 12.5363 41.4999 12.8376 41.4999 13.2209C41.4997 13.9877 41.4995 15.0831 41.499 16.3973C41.4979 19.0257 41.4958 22.5295 41.4917 26.0312C41.4875 29.533 41.4813 33.0323 41.4719 35.6518C41.4672 36.9617 41.4617 38.0509 41.4554 38.8102C41.4522 39.1901 41.4488 39.486 41.4452 39.6852C41.4433 39.7854 41.4415 39.8582 41.4398 39.904C41.4393 39.9152 41.4389 39.924 41.4386 39.9306C41.4382 39.9376 41.438 39.9403 41.438 39.9399C41.4381 39.9397 41.4383 39.9372 41.4387 39.933C41.4391 39.9299 41.4402 39.9199 41.4426 39.9064C41.4428 39.9054 41.4504 39.8555 41.4756 39.7975C41.4961 39.756 41.5846 39.6397 41.6627 39.5774C41.8352 39.5075 42.165 39.5545 42.2872 39.6443L41.5795 40.3508Z" fill="white"/>
<path d="M18 26.4998H18.6364V25.4998H18V26.4998ZM18.6364 26.4998C19.2487 26.4998 19.7626 27.0509 19.7626 27.6865H20.7626C20.7626 26.5621 19.8624 25.4998 18.6364 25.4998V26.4998ZM19.7626 30.8398C19.7626 32.492 21.0301 33.8332 22.6667 33.8332V32.8332C21.6164 32.8332 20.7626 31.9744 20.7626 30.8398H19.7626ZM18.6364 26.4998C19.8624 26.4998 20.7626 25.4376 20.7626 24.3132H19.7626C19.7626 24.9488 19.2487 25.4998 18.6364 25.4998V26.4998ZM20.7626 21.1598C20.7626 20.0253 21.6164 19.1665 22.6667 19.1665V18.1665C21.0301 18.1665 19.7626 19.5077 19.7626 21.1598H20.7626ZM34 25.4998H33.3636V26.4998H34V25.4998ZM33.3636 25.4998C32.1376 25.4998 31.2374 26.5621 31.2374 27.6865H32.2374C32.2374 27.0509 32.7513 26.4998 33.3636 26.4998V25.4998ZM31.2374 30.8398C31.2374 31.9744 30.3836 32.8332 29.3333 32.8332V33.8332C30.9699 33.8332 32.2374 32.492 32.2374 30.8398H31.2374ZM33.3636 25.4998C32.7513 25.4998 32.2374 24.9488 32.2374 24.3132H31.2374C31.2374 25.4376 32.1376 26.4998 33.3636 26.4998V25.4998ZM32.2374 21.1598C32.2374 19.5077 30.9699 18.1665 29.3333 18.1665V19.1665C30.3836 19.1665 31.2374 20.0253 31.2374 21.1598H32.2374ZM19.7626 27.6865V30.8398H20.7626V27.6865H19.7626ZM20.7626 24.3132V21.1598H19.7626V24.3132H20.7626ZM31.2374 27.6865V30.8398H32.2374V27.6865H31.2374ZM32.2374 24.3132V21.1598H31.2374V24.3132H32.2374Z" fill="white"/>
<path d="M42.0003 11.9998H33.8585C33.1965 11.9998 32.667 11.4665 32.667 10.7998V2.6665C35.8443 5.79984 38.8892 8.8665 42.0003 11.9998Z" fill="#00ED64" stroke="white" stroke-miterlimit="10" stroke-linecap="round" stroke-linejoin="round"/>
<path d="M11.2777 41.393C10.5428 41.393 9.94154 40.792 9.94154 40.0574V6.6665H7.33612C6.60125 6.6665 6 7.26754 6 8.00214V43.9975C6 44.7321 6.60125 45.3332 7.33612 45.3332H36.6639C37.3987 45.3332 38 44.7321 38 43.9975C38 43.9975 38 41.7937 38 41.3263H11.2777V41.393Z" stroke="white" stroke-miterlimit="10" stroke-linecap="round" stroke-linejoin="round"/>
</svg>
