<svg width="48" height="48" viewBox="0 0 48 48" fill="none" xmlns="http://www.w3.org/2000/svg">
<path d="M23.9993 45.3337C35.7814 45.3337 45.3327 35.7824 45.3327 24.0003C45.3327 12.2183 35.7814 2.66699 23.9993 2.66699C12.2173 2.66699 2.66602 12.2183 2.66602 24.0003C2.66602 35.7824 12.2173 45.3337 23.9993 45.3337Z" stroke="white" stroke-miterlimit="10"/>
<path d="M34.0626 30.8575H24.6034C24.268 30.8575 23.9997 30.6092 23.9997 30.2989V28.1262C23.9997 27.8158 24.268 27.5675 24.6034 27.5675H34.0626C34.398 27.5675 34.6663 27.8158 34.6663 28.1262V30.2989C34.6663 30.6092 34.398 30.8575 34.0626 30.8575Z" fill="#00ED64"/>
<path d="M22.5179 23.282L15.9219 16.5332C15.7241 16.3307 15.3283 16.3307 15.1304 16.5332L13.4814 18.2204C13.2835 18.4229 13.2835 18.8278 13.4814 19.0303L17.9667 23.6194L13.4814 28.2086C13.2835 28.4111 13.2835 28.816 13.4814 29.0185L15.1304 30.7057C15.3283 30.9082 15.7241 30.9082 15.9219 30.7057L22.5179 23.9569C22.7158 23.8894 22.7158 23.4845 22.5179 23.282Z" fill="#00ED64"/>
<path d="M34.0626 30.8575H24.6034C24.268 30.8575 23.9997 30.6092 23.9997 30.2989V28.1262C23.9997 27.8158 24.268 27.5675 24.6034 27.5675H34.0626C34.398 27.5675 34.6663 27.8158 34.6663 28.1262V30.2989C34.6663 30.6092 34.398 30.8575 34.0626 30.8575Z" stroke="white" stroke-miterlimit="10" stroke-linecap="round" stroke-linejoin="round"/>
<path d="M22.5179 23.282L15.9219 16.5332C15.7241 16.3307 15.3283 16.3307 15.1304 16.5332L13.4814 18.2204C13.2835 18.4229 13.2835 18.8278 13.4814 19.0303L17.9667 23.6194L13.4814 28.2086C13.2835 28.4111 13.2835 28.816 13.4814 29.0185L15.1304 30.7057C15.3283 30.9082 15.7241 30.9082 15.9219 30.7057L22.5179 23.9569C22.7158 23.8894 22.7158 23.4845 22.5179 23.282Z" stroke="white" stroke-miterlimit="10" stroke-linecap="round" stroke-linejoin="round"/>
</svg>
